<mxfile host="app.diagrams.net" modified="2022-08-04T07:28:41.484Z" agent="5.0 (Windows NT 10.0; Win64; x64) AppleWebKit/537.36 (KHTML, like Gecko) Chrome/103.0.0.0 Safari/537.36" etag="jodIo4cgOQews9WDKJqE" version="20.2.2" type="github">
  <diagram id="7bg6_q8TRJejnkU7T4GQ" name="第 1 页">
    <mxGraphModel dx="1504" dy="746" grid="1" gridSize="10" guides="1" tooltips="1" connect="1" arrows="1" fold="1" page="1" pageScale="1" pageWidth="827" pageHeight="1169" math="0" shadow="0">
      <root>
        <mxCell id="0" />
        <mxCell id="1" parent="0" />
        <mxCell id="Iu_L5aA--IFW2yE7fhGC-31" style="edgeStyle=none;rounded=0;orthogonalLoop=1;jettySize=auto;html=1;exitX=1;exitY=0.5;exitDx=0;exitDy=0;entryX=0;entryY=0.5;entryDx=0;entryDy=0;fillColor=#ffe6cc;strokeColor=#d79b00;" parent="1" source="Iu_L5aA--IFW2yE7fhGC-14" target="Iu_L5aA--IFW2yE7fhGC-27" edge="1">
          <mxGeometry relative="1" as="geometry" />
        </mxCell>
        <mxCell id="Iu_L5aA--IFW2yE7fhGC-14" value="普通投放变更" style="rounded=0;whiteSpace=wrap;html=1;fillColor=#FFB570;" parent="1" vertex="1">
          <mxGeometry x="30" y="423" width="180" height="30" as="geometry" />
        </mxCell>
        <mxCell id="Iu_L5aA--IFW2yE7fhGC-33" style="edgeStyle=none;rounded=0;orthogonalLoop=1;jettySize=auto;html=1;exitX=1;exitY=0.5;exitDx=0;exitDy=0;entryX=0;entryY=0.5;entryDx=0;entryDy=0;fillColor=#d5e8d4;strokeColor=#82b366;" parent="1" source="Iu_L5aA--IFW2yE7fhGC-15" target="Iu_L5aA--IFW2yE7fhGC-26" edge="1">
          <mxGeometry relative="1" as="geometry" />
        </mxCell>
        <mxCell id="Iu_L5aA--IFW2yE7fhGC-15" value="普通投放下线" style="rounded=0;whiteSpace=wrap;html=1;fillColor=#d5e8d4;strokeColor=#82b366;" parent="1" vertex="1">
          <mxGeometry x="30" y="377" width="180" height="30" as="geometry" />
        </mxCell>
        <mxCell id="Iu_L5aA--IFW2yE7fhGC-28" style="rounded=0;orthogonalLoop=1;jettySize=auto;html=1;exitX=1;exitY=0.5;exitDx=0;exitDy=0;entryX=0;entryY=0.5;entryDx=0;entryDy=0;fillColor=#dae8fc;strokeColor=#6c8ebf;" parent="1" source="Iu_L5aA--IFW2yE7fhGC-16" target="Iu_L5aA--IFW2yE7fhGC-25" edge="1">
          <mxGeometry relative="1" as="geometry" />
        </mxCell>
        <mxCell id="Iu_L5aA--IFW2yE7fhGC-16" value="普通投放上线" style="rounded=0;whiteSpace=wrap;html=1;fillColor=#dae8fc;strokeColor=#6c8ebf;" parent="1" vertex="1">
          <mxGeometry x="30" y="330" width="180" height="30" as="geometry" />
        </mxCell>
        <mxCell id="Iu_L5aA--IFW2yE7fhGC-35" style="edgeStyle=none;rounded=0;orthogonalLoop=1;jettySize=auto;html=1;exitX=1;exitY=0.5;exitDx=0;exitDy=0;entryX=0;entryY=0.5;entryDx=0;entryDy=0;fillColor=#d5e8d4;strokeColor=#82b366;" parent="1" source="Iu_L5aA--IFW2yE7fhGC-18" target="Iu_L5aA--IFW2yE7fhGC-26" edge="1">
          <mxGeometry relative="1" as="geometry" />
        </mxCell>
        <mxCell id="Iu_L5aA--IFW2yE7fhGC-18" value="普通投放恢复" style="rounded=0;whiteSpace=wrap;html=1;fillColor=#d5e8d4;strokeColor=#82b366;" parent="1" vertex="1">
          <mxGeometry x="30" y="517" width="180" height="30" as="geometry" />
        </mxCell>
        <mxCell id="Iu_L5aA--IFW2yE7fhGC-34" style="edgeStyle=none;rounded=0;orthogonalLoop=1;jettySize=auto;html=1;exitX=1;exitY=0.5;exitDx=0;exitDy=0;entryX=0;entryY=0.5;entryDx=0;entryDy=0;fillColor=#d5e8d4;strokeColor=#82b366;" parent="1" source="Iu_L5aA--IFW2yE7fhGC-19" target="Iu_L5aA--IFW2yE7fhGC-26" edge="1">
          <mxGeometry relative="1" as="geometry" />
        </mxCell>
        <mxCell id="Iu_L5aA--IFW2yE7fhGC-19" value="普通投放暂停" style="rounded=0;whiteSpace=wrap;html=1;fillColor=#d5e8d4;strokeColor=#82b366;" parent="1" vertex="1">
          <mxGeometry x="30" y="470" width="180" height="30" as="geometry" />
        </mxCell>
        <mxCell id="Iu_L5aA--IFW2yE7fhGC-29" style="edgeStyle=none;rounded=0;orthogonalLoop=1;jettySize=auto;html=1;exitX=1;exitY=0.5;exitDx=0;exitDy=0;entryX=0;entryY=0.5;entryDx=0;entryDy=0;fillColor=#dae8fc;strokeColor=#6c8ebf;" parent="1" source="Iu_L5aA--IFW2yE7fhGC-20" target="Iu_L5aA--IFW2yE7fhGC-25" edge="1">
          <mxGeometry relative="1" as="geometry" />
        </mxCell>
        <mxCell id="Iu_L5aA--IFW2yE7fhGC-20" value="AB测试上线" style="rounded=0;whiteSpace=wrap;html=1;fillColor=#dae8fc;strokeColor=#6c8ebf;" parent="1" vertex="1">
          <mxGeometry x="30" y="563" width="180" height="30" as="geometry" />
        </mxCell>
        <mxCell id="Iu_L5aA--IFW2yE7fhGC-36" style="edgeStyle=none;rounded=0;orthogonalLoop=1;jettySize=auto;html=1;exitX=1;exitY=0.5;exitDx=0;exitDy=0;entryX=0;entryY=0.5;entryDx=0;entryDy=0;fillColor=#d5e8d4;strokeColor=#82b366;" parent="1" source="Iu_L5aA--IFW2yE7fhGC-21" target="Iu_L5aA--IFW2yE7fhGC-26" edge="1">
          <mxGeometry relative="1" as="geometry" />
        </mxCell>
        <mxCell id="Iu_L5aA--IFW2yE7fhGC-21" value="AB测试下线" style="rounded=0;whiteSpace=wrap;html=1;fillColor=#d5e8d4;strokeColor=#82b366;" parent="1" vertex="1">
          <mxGeometry x="30" y="610" width="180" height="30" as="geometry" />
        </mxCell>
        <mxCell id="Iu_L5aA--IFW2yE7fhGC-30" style="edgeStyle=none;rounded=0;orthogonalLoop=1;jettySize=auto;html=1;exitX=1;exitY=0.5;exitDx=0;exitDy=0;fillColor=#dae8fc;strokeColor=#6c8ebf;" parent="1" source="Iu_L5aA--IFW2yE7fhGC-22" edge="1">
          <mxGeometry relative="1" as="geometry">
            <mxPoint x="450" y="440" as="targetPoint" />
          </mxGeometry>
        </mxCell>
        <mxCell id="Iu_L5aA--IFW2yE7fhGC-22" value="兜底策略上线" style="rounded=0;whiteSpace=wrap;html=1;fillColor=#dae8fc;strokeColor=#6c8ebf;" parent="1" vertex="1">
          <mxGeometry x="30" y="657" width="180" height="30" as="geometry" />
        </mxCell>
        <mxCell id="Iu_L5aA--IFW2yE7fhGC-37" style="edgeStyle=none;rounded=0;orthogonalLoop=1;jettySize=auto;html=1;exitX=1;exitY=0.5;exitDx=0;exitDy=0;fillColor=#d5e8d4;strokeColor=#82b366;" parent="1" source="Iu_L5aA--IFW2yE7fhGC-23" edge="1">
          <mxGeometry relative="1" as="geometry">
            <mxPoint x="450" y="550" as="targetPoint" />
          </mxGeometry>
        </mxCell>
        <mxCell id="Iu_L5aA--IFW2yE7fhGC-23" value="兜底策略下线" style="rounded=0;whiteSpace=wrap;html=1;fillColor=#d5e8d4;strokeColor=#82b366;" parent="1" vertex="1">
          <mxGeometry x="30" y="703" width="180" height="30" as="geometry" />
        </mxCell>
        <mxCell id="Iu_L5aA--IFW2yE7fhGC-32" style="edgeStyle=none;rounded=0;orthogonalLoop=1;jettySize=auto;html=1;exitX=1;exitY=0.5;exitDx=0;exitDy=0;entryX=0;entryY=0.5;entryDx=0;entryDy=0;fillColor=#ffe6cc;strokeColor=#d79b00;" parent="1" source="Iu_L5aA--IFW2yE7fhGC-24" target="Iu_L5aA--IFW2yE7fhGC-27" edge="1">
          <mxGeometry relative="1" as="geometry" />
        </mxCell>
        <mxCell id="Iu_L5aA--IFW2yE7fhGC-24" value="兜底策略变更" style="rounded=0;whiteSpace=wrap;html=1;fillColor=#FFB570;" parent="1" vertex="1">
          <mxGeometry x="30" y="750" width="180" height="30" as="geometry" />
        </mxCell>
        <mxCell id="Iu_L5aA--IFW2yE7fhGC-50" style="edgeStyle=none;rounded=0;orthogonalLoop=1;jettySize=auto;html=1;exitX=1;exitY=0.5;exitDx=0;exitDy=0;entryX=0;entryY=0.5;entryDx=0;entryDy=0;" parent="1" source="Iu_L5aA--IFW2yE7fhGC-25" target="Iu_L5aA--IFW2yE7fhGC-49" edge="1">
          <mxGeometry relative="1" as="geometry" />
        </mxCell>
        <mxCell id="Iu_L5aA--IFW2yE7fhGC-25" value="rsyncAdInfo.NEWED&lt;br&gt;上线" style="ellipse;whiteSpace=wrap;html=1;fillColor=#dae8fc;strokeColor=#6c8ebf;" parent="1" vertex="1">
          <mxGeometry x="450" y="396" width="200" height="84" as="geometry" />
        </mxCell>
        <mxCell id="C0SzMsLmh69RnRLxw9ak-4" style="edgeStyle=orthogonalEdgeStyle;rounded=0;orthogonalLoop=1;jettySize=auto;html=1;exitX=1;exitY=0.5;exitDx=0;exitDy=0;entryX=0;entryY=0.5;entryDx=0;entryDy=0;" edge="1" parent="1" source="Iu_L5aA--IFW2yE7fhGC-26" target="C0SzMsLmh69RnRLxw9ak-3">
          <mxGeometry relative="1" as="geometry" />
        </mxCell>
        <mxCell id="Iu_L5aA--IFW2yE7fhGC-26" value="rsyncAdState&lt;br&gt;暂停，恢复，下线" style="ellipse;whiteSpace=wrap;html=1;fillColor=#d5e8d4;strokeColor=#82b366;" parent="1" vertex="1">
          <mxGeometry x="450" y="515" width="200" height="74" as="geometry" />
        </mxCell>
        <mxCell id="Iu_L5aA--IFW2yE7fhGC-54" style="edgeStyle=none;rounded=0;orthogonalLoop=1;jettySize=auto;html=1;exitX=1;exitY=0.5;exitDx=0;exitDy=0;entryX=0;entryY=0.5;entryDx=0;entryDy=0;" parent="1" source="Iu_L5aA--IFW2yE7fhGC-27" target="Iu_L5aA--IFW2yE7fhGC-53" edge="1">
          <mxGeometry relative="1" as="geometry" />
        </mxCell>
        <mxCell id="Iu_L5aA--IFW2yE7fhGC-27" value="rsyncAdInfo.CHANGED&lt;br&gt;变更" style="ellipse;whiteSpace=wrap;html=1;fillColor=#ffe6cc;strokeColor=#d79b00;" parent="1" vertex="1">
          <mxGeometry x="450" y="629" width="200" height="74" as="geometry" />
        </mxCell>
        <mxCell id="Iu_L5aA--IFW2yE7fhGC-38" value="普通投放变更" style="rounded=0;whiteSpace=wrap;html=1;fillColor=#ffe6cc;strokeColor=#d79b00;" parent="1" vertex="1">
          <mxGeometry x="30" y="423" width="180" height="30" as="geometry" />
        </mxCell>
        <mxCell id="Iu_L5aA--IFW2yE7fhGC-39" value="兜底策略变更" style="rounded=0;whiteSpace=wrap;html=1;fillColor=#ffe6cc;strokeColor=#d79b00;" parent="1" vertex="1">
          <mxGeometry x="30" y="750" width="180" height="30" as="geometry" />
        </mxCell>
        <mxCell id="Iu_L5aA--IFW2yE7fhGC-70" style="edgeStyle=none;rounded=0;orthogonalLoop=1;jettySize=auto;html=1;exitX=0.5;exitY=1;exitDx=0;exitDy=0;entryX=1;entryY=0;entryDx=0;entryDy=0;" parent="1" source="Iu_L5aA--IFW2yE7fhGC-46" target="Iu_L5aA--IFW2yE7fhGC-56" edge="1">
          <mxGeometry relative="1" as="geometry" />
        </mxCell>
        <mxCell id="Iu_L5aA--IFW2yE7fhGC-53" value="更新原广告策略，并下线样式验证" style="rounded=0;whiteSpace=wrap;html=1;fillColor=#fff2cc;strokeColor=#d6b656;" parent="1" vertex="1">
          <mxGeometry x="750" y="636" width="120" height="60" as="geometry" />
        </mxCell>
        <mxCell id="Iu_L5aA--IFW2yE7fhGC-57" style="edgeStyle=none;rounded=0;orthogonalLoop=1;jettySize=auto;html=1;exitX=1;exitY=0.5;exitDx=0;exitDy=0;entryX=0;entryY=0.5;entryDx=0;entryDy=0;" parent="1" source="Iu_L5aA--IFW2yE7fhGC-55" target="Iu_L5aA--IFW2yE7fhGC-56" edge="1">
          <mxGeometry relative="1" as="geometry" />
        </mxCell>
        <mxCell id="Iu_L5aA--IFW2yE7fhGC-55" value="同步优先级" style="ellipse;whiteSpace=wrap;html=1;fillColor=#d5e8d4;strokeColor=#82b366;" parent="1" vertex="1">
          <mxGeometry x="450" y="750" width="200" height="74" as="geometry" />
        </mxCell>
        <mxCell id="Iu_L5aA--IFW2yE7fhGC-56" value="根据SpaceNo找到上线的广告，根据adNo去更新对应栏位所在的表记录&lt;br&gt;（略过样式验证）" style="rounded=0;whiteSpace=wrap;html=1;fillColor=#fff2cc;strokeColor=#d6b656;" parent="1" vertex="1">
          <mxGeometry x="750" y="742" width="120" height="90" as="geometry" />
        </mxCell>
        <mxCell id="C0SzMsLmh69RnRLxw9ak-1" value="" style="group" vertex="1" connectable="0" parent="1">
          <mxGeometry x="720" y="260" width="630" height="220" as="geometry" />
        </mxCell>
        <mxCell id="Iu_L5aA--IFW2yE7fhGC-49" value="" style="rounded=0;whiteSpace=wrap;html=1;fillColor=#f5f5f5;fontColor=#333333;strokeColor=#666666;" parent="C0SzMsLmh69RnRLxw9ak-1" vertex="1">
          <mxGeometry width="630" height="220" as="geometry" />
        </mxCell>
        <mxCell id="Iu_L5aA--IFW2yE7fhGC-44" value="同步广告策略" style="rounded=0;whiteSpace=wrap;html=1;fillColor=#fff2cc;strokeColor=#d6b656;" parent="C0SzMsLmh69RnRLxw9ak-1" vertex="1">
          <mxGeometry x="40" y="100" width="120" height="60" as="geometry" />
        </mxCell>
        <mxCell id="Iu_L5aA--IFW2yE7fhGC-45" value="同步广告客群" style="rounded=0;whiteSpace=wrap;html=1;fillColor=#fff2cc;strokeColor=#d6b656;" parent="C0SzMsLmh69RnRLxw9ak-1" vertex="1">
          <mxGeometry x="440" y="51" width="120" height="60" as="geometry" />
        </mxCell>
        <mxCell id="Iu_L5aA--IFW2yE7fhGC-46" value="重排序" style="rounded=0;whiteSpace=wrap;html=1;fillColor=#fff2cc;strokeColor=#d6b656;" parent="C0SzMsLmh69RnRLxw9ak-1" vertex="1">
          <mxGeometry x="440" y="146" width="120" height="60" as="geometry" />
        </mxCell>
        <mxCell id="Iu_L5aA--IFW2yE7fhGC-67" style="edgeStyle=none;rounded=0;orthogonalLoop=1;jettySize=auto;html=1;exitX=1;exitY=0.5;exitDx=0;exitDy=0;" parent="C0SzMsLmh69RnRLxw9ak-1" source="Iu_L5aA--IFW2yE7fhGC-58" target="Iu_L5aA--IFW2yE7fhGC-45" edge="1">
          <mxGeometry relative="1" as="geometry" />
        </mxCell>
        <mxCell id="Iu_L5aA--IFW2yE7fhGC-58" value="客群同步时间监听器" style="rounded=0;whiteSpace=wrap;html=1;fillColor=#fff2cc;strokeColor=#d6b656;" parent="C0SzMsLmh69RnRLxw9ak-1" vertex="1">
          <mxGeometry x="240" y="51" width="120" height="60" as="geometry" />
        </mxCell>
        <mxCell id="Iu_L5aA--IFW2yE7fhGC-61" style="edgeStyle=none;rounded=0;orthogonalLoop=1;jettySize=auto;html=1;exitX=1;exitY=0.5;exitDx=0;exitDy=0;entryX=0;entryY=0.5;entryDx=0;entryDy=0;" parent="C0SzMsLmh69RnRLxw9ak-1" source="Iu_L5aA--IFW2yE7fhGC-44" target="Iu_L5aA--IFW2yE7fhGC-58" edge="1">
          <mxGeometry relative="1" as="geometry" />
        </mxCell>
        <mxCell id="Iu_L5aA--IFW2yE7fhGC-68" style="edgeStyle=none;rounded=0;orthogonalLoop=1;jettySize=auto;html=1;exitX=1;exitY=0.5;exitDx=0;exitDy=0;entryX=0;entryY=0.5;entryDx=0;entryDy=0;" parent="C0SzMsLmh69RnRLxw9ak-1" source="Iu_L5aA--IFW2yE7fhGC-59" target="Iu_L5aA--IFW2yE7fhGC-46" edge="1">
          <mxGeometry relative="1" as="geometry" />
        </mxCell>
        <mxCell id="Iu_L5aA--IFW2yE7fhGC-59" value="重排序监听器" style="rounded=0;whiteSpace=wrap;html=1;fillColor=#fff2cc;strokeColor=#d6b656;" parent="C0SzMsLmh69RnRLxw9ak-1" vertex="1">
          <mxGeometry x="240" y="146" width="120" height="60" as="geometry" />
        </mxCell>
        <mxCell id="Iu_L5aA--IFW2yE7fhGC-63" style="edgeStyle=none;rounded=0;orthogonalLoop=1;jettySize=auto;html=1;exitX=1;exitY=0.5;exitDx=0;exitDy=0;entryX=0;entryY=0.5;entryDx=0;entryDy=0;" parent="C0SzMsLmh69RnRLxw9ak-1" source="Iu_L5aA--IFW2yE7fhGC-44" target="Iu_L5aA--IFW2yE7fhGC-59" edge="1">
          <mxGeometry relative="1" as="geometry" />
        </mxCell>
        <mxCell id="Iu_L5aA--IFW2yE7fhGC-65" value="EventBus" style="text;html=1;strokeColor=none;fillColor=none;align=center;verticalAlign=middle;whiteSpace=wrap;rounded=0;" parent="C0SzMsLmh69RnRLxw9ak-1" vertex="1">
          <mxGeometry x="170" y="21" width="60" height="30" as="geometry" />
        </mxCell>
        <mxCell id="C0SzMsLmh69RnRLxw9ak-3" value="根据adNo更新对应栏位所在的表记录&lt;br&gt;（略过样式验证）" style="rounded=0;whiteSpace=wrap;html=1;fillColor=#fff2cc;strokeColor=#d6b656;" vertex="1" parent="1">
          <mxGeometry x="750" y="522" width="120" height="60" as="geometry" />
        </mxCell>
        <mxCell id="C0SzMsLmh69RnRLxw9ak-7" style="rounded=0;orthogonalLoop=1;jettySize=auto;html=1;exitX=0.5;exitY=1;exitDx=0;exitDy=0;" edge="1" parent="1" source="C0SzMsLmh69RnRLxw9ak-6" target="Iu_L5aA--IFW2yE7fhGC-45">
          <mxGeometry relative="1" as="geometry" />
        </mxCell>
        <mxCell id="C0SzMsLmh69RnRLxw9ak-6" value="Schedule服务&lt;br&gt;每天01:00会调用定时客群同步" style="ellipse;whiteSpace=wrap;html=1;fillColor=#f8cecc;strokeColor=#b85450;" vertex="1" parent="1">
          <mxGeometry x="1090" y="150" width="260" height="100" as="geometry" />
        </mxCell>
      </root>
    </mxGraphModel>
  </diagram>
</mxfile>
